<svg width="33" height="33" viewBox="0 0 33 33" fill="none" xmlns="http://www.w3.org/2000/svg">
<path d="M29.6216 9.76795C29.6417 10.059 29.6417 10.3498 29.6417 10.6435C29.6417 19.5896 22.8311 29.9072 10.378 29.9072V29.9021C6.69902 29.9072 3.09631 28.8535 0 26.8666C0.534961 26.931 1.0725 26.9633 1.61133 26.9646C4.66051 26.967 7.62198 25.9443 10.0199 24.0608C8.60706 24.0341 7.2379 23.5666 6.10382 22.7236C4.96974 21.8806 4.12745 20.7043 3.69471 19.3591C4.70972 19.555 5.75541 19.5145 6.75159 19.2423C3.59288 18.6042 1.32052 15.8291 1.32052 12.6062V12.5204C2.26213 13.0449 3.316 13.3356 4.39338 13.3678C1.41797 11.3795 0.501445 7.42185 2.29788 4.32784C3.99761 6.41939 6.1183 8.13 8.5222 9.34856C10.9261 10.5671 13.5595 11.2664 16.2512 11.4009C15.9829 10.2456 16.0226 9.0401 16.3664 7.90495C16.7101 6.76979 17.3459 5.74478 18.2101 4.93241C20.937 2.36898 25.2257 2.50047 27.7888 5.22606C29.3051 4.92667 30.7591 4.37076 32.0884 3.58225C31.5829 5.14993 30.5253 6.48067 29.1122 7.32698C30.4543 7.16874 31.7649 6.80936 33 6.26092C32.0914 7.62156 30.9474 8.80918 29.6216 9.76795Z" fill="#1D9BF0"/>
</svg>
