<svg width="32" height="33" viewBox="0 0 32 33" fill="none" xmlns="http://www.w3.org/2000/svg">
<g clip-path="url(#clip0_359_34)">
<path d="M32 16.5C32 7.6635 24.8365 0.5 16 0.5C7.1635 0.5 0 7.66337 0 16.5C0 24.486 5.851 31.1054 13.5 32.3056V21.125H9.4375V16.5H13.5V12.975C13.5 8.965 15.8888 6.75 19.5434 6.75C21.294 6.75 23.125 7.0625 23.125 7.0625V11H21.1075C19.1198 11 18.5 12.2334 18.5 13.4987V16.5H22.9375L22.2281 21.125H18.5V32.3056C26.149 31.1054 32 24.4861 32 16.5Z" fill="#1877F2"/>
<path d="M22.2281 21.125L22.9375 16.5H18.5V13.4987C18.5 12.2332 19.1199 11 21.1075 11H23.125V7.0625C23.125 7.0625 21.294 6.75 19.5434 6.75C15.8888 6.75 13.5 8.965 13.5 12.975V16.5H9.4375V21.125H13.5V32.3056C14.327 32.4352 15.1629 32.5002 16 32.5C16.8371 32.5002 17.673 32.4353 18.5 32.3056V21.125H22.2281Z" fill="white"/>
</g>
<defs>
<clipPath id="clip0_359_34">
<rect width="32" height="32" fill="white" transform="translate(0 0.5)"/>
</clipPath>
</defs>
</svg>
