<svg width="27" height="26" viewBox="0 0 27 26" fill="none" xmlns="http://www.w3.org/2000/svg">
<g clip-path="url(#clip0_425_91)">
<path fill-rule="evenodd" clip-rule="evenodd" d="M0.176758 6.09375C0.176758 5.77052 0.305161 5.46052 0.533721 5.23196C0.762281 5.0034 1.07228 4.875 1.39551 4.875H24.958C25.2812 4.875 25.5912 5.0034 25.8198 5.23196C26.0484 5.46052 26.1768 5.77052 26.1768 6.09375C26.1768 6.41698 26.0484 6.72698 25.8198 6.95554C25.5912 7.1841 25.2812 7.3125 24.958 7.3125H1.39551C1.07228 7.3125 0.762281 7.1841 0.533721 6.95554C0.305161 6.72698 0.176758 6.41698 0.176758 6.09375ZM0.176758 13C0.176758 12.6768 0.305161 12.3668 0.533721 12.1382C0.762281 11.9097 1.07228 11.7812 1.39551 11.7812H24.958C25.2812 11.7812 25.5912 11.9097 25.8198 12.1382C26.0484 12.3668 26.1768 12.6768 26.1768 13C26.1768 13.3232 26.0484 13.6332 25.8198 13.8618C25.5912 14.0903 25.2812 14.2188 24.958 14.2188H1.39551C1.07228 14.2188 0.762281 14.0903 0.533721 13.8618C0.305161 13.6332 0.176758 13.3232 0.176758 13ZM1.39551 18.6875C1.07228 18.6875 0.762281 18.8159 0.533721 19.0445C0.305161 19.273 0.176758 19.583 0.176758 19.9062C0.176758 20.2295 0.305161 20.5395 0.533721 20.768C0.762281 20.9966 1.07228 21.125 1.39551 21.125H24.958C25.2812 21.125 25.5912 20.9966 25.8198 20.768C26.0484 20.5395 26.1768 20.2295 26.1768 19.9062C26.1768 19.583 26.0484 19.273 25.8198 19.0445C25.5912 18.8159 25.2812 18.6875 24.958 18.6875H1.39551Z" fill="black"/>
</g>
<defs>
<clipPath id="clip0_425_91">
<rect width="26" height="26" fill="white" transform="translate(0.176758)"/>
</clipPath>
</defs>
</svg>
