<svg width="210" height="263" viewBox="0 0 210 263" fill="none" xmlns="http://www.w3.org/2000/svg">
<rect x="144.021" y="124.743" width="24.3235" height="24.3235" transform="rotate(-19.2832 144.021 124.743)" fill="#226E27"/>
<rect x="46.2773" y="136.777" width="24.3235" height="24.3235" transform="rotate(-19.2832 46.2773 136.777)" fill="#226E27"/>
<rect x="65" y="46.0325" width="24.3235" height="24.3235" transform="rotate(-19.2832 65 46.0325)" fill="#226E27"/>
<rect x="44.9551" y="196.343" width="24.3235" height="24.3235" transform="rotate(-19.2832 44.9551 196.343)" fill="#226E27"/>
<rect x="83.75" y="239.656" width="24.3235" height="24.3235" transform="rotate(-19.2832 83.75 239.656)" fill="#226E27"/>
<rect x="178.896" y="52.3303" width="24.3235" height="24.3235" transform="rotate(-19.2832 178.896 52.3303)" fill="#226E27"/>
<rect x="161.92" y="8.03247" width="24.3235" height="24.3235" transform="rotate(-19.2832 161.92 8.03247)" fill="#226E27"/>
<rect x="99.0879" y="83.947" width="24.3235" height="24.3235" transform="rotate(-19.2832 99.0879 83.947)" fill="#226E27"/>
<rect x="120.123" y="30.0432" width="24.3235" height="24.3235" transform="rotate(-19.2832 120.123 30.0432)" fill="#226E27"/>
<rect x="95.6855" y="145.555" width="15.6484" height="15.6484" transform="rotate(-19.2832 95.6855 145.555)" fill="#226E27"/>
<rect y="162.409" width="15.6484" height="15.6484" transform="rotate(-19.2832 0 162.409)" fill="#226E27"/>
<rect x="146.176" y="85.04" width="15.6484" height="15.6484" transform="rotate(-19.2832 146.176 85.04)" fill="#226E27"/>
</svg>
