<svg width="182" height="175" viewBox="0 0 182 175" fill="none" xmlns="http://www.w3.org/2000/svg">
<rect x="37.3223" y="99.3167" width="17.4183" height="17.4183" transform="rotate(-45 37.3223 99.3167)" fill="#226E27"/>
<rect x="106.322" y="12.3167" width="17.4183" height="17.4183" transform="rotate(-45 106.322 12.3167)" fill="#226E27"/>
<rect x="88.3662" y="125.113" width="17.4183" height="17.4183" transform="rotate(-45 88.3662 125.113)" fill="#226E27"/>
<rect x="157.366" y="38.113" width="17.4183" height="17.4183" transform="rotate(-45 157.366 38.113)" fill="#226E27"/>
<rect x="24.6992" y="161.887" width="17.4183" height="17.4183" transform="rotate(-45 24.6992 161.887)" fill="#226E27"/>
<rect x="93.6992" y="74.8867" width="17.4183" height="17.4183" transform="rotate(-45 93.6992 74.8867)" fill="#226E27"/>
<rect x="49.3975" y="133.895" width="17.4183" height="17.4183" transform="rotate(-45 49.3975 133.895)" fill="#226E27"/>
<rect x="118.397" y="46.8948" width="17.4183" height="17.4183" transform="rotate(-45 118.397 46.8948)" fill="#226E27"/>
<rect y="124.015" width="17.4183" height="17.4183" transform="rotate(-45 0 124.015)" fill="#226E27"/>
<rect x="69" y="37.0154" width="17.4183" height="17.4183" transform="rotate(-45 69 37.0154)" fill="#226E27"/>
</svg>
