<svg width="33" height="33" viewBox="0 0 33 33" fill="none" xmlns="http://www.w3.org/2000/svg">
<g clip-path="url(#clip0_359_44)">
<path d="M25.2656 0H7.73438C3.4628 0 0 3.4628 0 7.73438V25.2656C0 29.5372 3.4628 33 7.73438 33H25.2656C29.5372 33 33 29.5372 33 25.2656V7.73438C33 3.4628 29.5372 0 25.2656 0Z" fill="url(#paint0_radial_359_44)"/>
<path d="M25.2656 0H7.73438C3.4628 0 0 3.4628 0 7.73438V25.2656C0 29.5372 3.4628 33 7.73438 33H25.2656C29.5372 33 33 29.5372 33 25.2656V7.73438C33 3.4628 29.5372 0 25.2656 0Z" fill="url(#paint1_radial_359_44)"/>
<path d="M16.5012 3.60938C13.0003 3.60938 12.5609 3.62471 11.186 3.68723C9.81363 3.75014 8.87687 3.96735 8.05729 4.28613C7.20934 4.61536 6.49017 5.05583 5.77371 5.77255C5.05661 6.48914 4.61613 7.20831 4.28588 8.05587C3.96619 8.87571 3.74872 9.81286 3.68698 11.1846C3.62549 12.5596 3.60938 12.9992 3.60938 16.5001C3.60938 20.0011 3.62484 20.4391 3.68723 21.814C3.7504 23.1864 3.96761 24.1231 4.28613 24.9427C4.61562 25.7907 5.05609 26.5098 5.77281 27.2263C6.48914 27.9434 7.20831 28.3849 8.05561 28.7141C8.87584 29.0329 9.81273 29.2501 11.1848 29.313C12.5599 29.3755 12.9989 29.3909 16.4996 29.3909C20.0008 29.3909 20.4389 29.3755 21.8138 29.313C23.1861 29.2501 24.1239 29.0329 24.9441 28.7141C25.7917 28.3849 26.5098 27.9434 27.226 27.2263C27.9431 26.5098 28.3835 25.7907 28.7139 24.9431C29.0307 24.1231 29.2483 23.1861 29.3128 21.8143C29.3745 20.4394 29.3906 20.0011 29.3906 16.5001C29.3906 12.9992 29.3745 12.5599 29.3128 11.1848C29.2483 9.81247 29.0307 8.87584 28.7139 8.05625C28.3835 7.20831 27.9431 6.48914 27.226 5.77255C26.5091 5.05557 25.7919 4.6151 24.9434 4.28626C24.1216 3.96735 23.1843 3.75001 21.812 3.68723C20.4369 3.62471 19.9992 3.60938 16.4972 3.60938H16.5012ZM15.3447 5.93239C15.688 5.93188 16.071 5.93239 16.5012 5.93239C19.9431 5.93239 20.3509 5.94477 21.7101 6.00652C22.967 6.06401 23.6491 6.274 24.1035 6.45047C24.7051 6.68405 25.134 6.96339 25.5849 7.41469C26.0361 7.86586 26.3153 8.2955 26.5495 8.89711C26.726 9.35086 26.9363 10.033 26.9935 11.2899C27.0552 12.6488 27.0686 13.0569 27.0686 16.4972C27.0686 19.9374 27.0552 20.3457 26.9935 21.7045C26.936 22.9613 26.726 23.6435 26.5495 24.0973C26.316 24.699 26.0361 25.1273 25.5849 25.5782C25.1338 26.0294 24.7054 26.3086 24.1035 26.5423C23.6497 26.7196 22.967 26.929 21.7101 26.9865C20.3512 27.0483 19.9431 27.0617 16.5012 27.0617C13.0591 27.0617 12.6511 27.0483 11.2923 26.9865C10.0355 26.9285 9.35331 26.7185 8.89853 26.5421C8.29705 26.3083 7.86728 26.0291 7.41611 25.578C6.96493 25.1268 6.68572 24.6982 6.4515 24.0963C6.27503 23.6424 6.06478 22.9603 6.00755 21.7034C5.9458 20.3445 5.93343 19.9364 5.93343 16.4939C5.93343 13.0516 5.9458 12.6456 6.00755 11.2866C6.06504 10.0298 6.27503 9.34764 6.4515 8.89324C6.68521 8.29164 6.96493 7.86199 7.41623 7.41082C7.86741 6.95965 8.29705 6.68031 8.89866 6.44621C9.35305 6.26897 10.0355 6.0595 11.2923 6.00175C12.4815 5.94799 12.9423 5.93188 15.3447 5.92917V5.93239ZM23.3822 8.07275C22.5282 8.07275 21.8353 8.76498 21.8353 9.61911C21.8353 10.4731 22.5282 11.166 23.3822 11.166C24.2362 11.166 24.9291 10.4731 24.9291 9.61911C24.9291 8.76511 24.2362 8.07224 23.3822 8.07224V8.07275ZM16.5012 9.88015C12.8454 9.88015 9.88131 12.8442 9.88131 16.5001C9.88131 20.156 12.8454 23.1187 16.5012 23.1187C20.1571 23.1187 23.1201 20.156 23.1201 16.5001C23.1201 12.8443 20.1568 9.88015 16.5009 9.88015H16.5012ZM16.5012 12.2032C18.8742 12.2032 20.7981 14.1268 20.7981 16.5001C20.7981 18.8732 18.8742 20.7971 16.5012 20.7971C14.128 20.7971 12.2043 18.8732 12.2043 16.5001C12.2043 14.1268 14.128 12.2032 16.5012 12.2032Z" fill="white"/>
</g>
<defs>
<radialGradient id="paint0_radial_359_44" cx="0" cy="0" r="1" gradientUnits="userSpaceOnUse" gradientTransform="translate(8.76562 35.5416) rotate(-90) scale(32.7055 30.4187)">
<stop stop-color="#FFDD55"/>
<stop offset="0.1" stop-color="#FFDD55"/>
<stop offset="0.5" stop-color="#FF543E"/>
<stop offset="1" stop-color="#C837AB"/>
</radialGradient>
<radialGradient id="paint1_radial_359_44" cx="0" cy="0" r="1" gradientUnits="userSpaceOnUse" gradientTransform="translate(-5.52763 2.37716) rotate(78.681) scale(14.6195 60.2621)">
<stop stop-color="#3771C8"/>
<stop offset="0.128" stop-color="#3771C8"/>
<stop offset="1" stop-color="#6600FF" stop-opacity="0"/>
</radialGradient>
<clipPath id="clip0_359_44">
<rect width="33" height="33" fill="white"/>
</clipPath>
</defs>
</svg>
