<svg width="32" height="33" viewBox="0 0 32 33" fill="none" xmlns="http://www.w3.org/2000/svg">
<g clip-path="url(#clip0_359_37)">
<path d="M24.5 0.5H7.5C3.35786 0.5 0 3.85786 0 8V25C0 29.1421 3.35786 32.5 7.5 32.5H24.5C28.6421 32.5 32 29.1421 32 25V8C32 3.85786 28.6421 0.5 24.5 0.5Z" fill="white"/>
<path d="M24.5 0.5H7.5C3.35786 0.5 0 3.85786 0 8V25C0 29.1421 3.35786 32.5 7.5 32.5H24.5C28.6421 32.5 32 29.1421 32 25V8C32 3.85786 28.6421 0.5 24.5 0.5Z" fill="#0A66C2"/>
<path d="M23.0894 27.7106H26.7481C26.8807 27.7106 27.0079 27.658 27.1016 27.5642C27.1954 27.4705 27.2481 27.3433 27.2481 27.2108L27.25 19.4805C27.25 15.4401 26.3794 12.3345 21.6577 12.3345C19.8629 12.2678 18.1702 13.193 17.2569 14.738C17.2524 14.7455 17.2456 14.7513 17.2375 14.7546C17.2294 14.7579 17.2205 14.7584 17.2121 14.7562C17.2036 14.7539 17.1962 14.7489 17.1908 14.742C17.1855 14.7351 17.1826 14.7266 17.1825 14.7179V13.2075C17.1825 13.0749 17.1298 12.9477 17.0361 12.8539C16.9423 12.7602 16.8151 12.7075 16.6825 12.7075H13.2104C13.0778 12.7075 12.9506 12.7602 12.8568 12.8539C12.7631 12.9477 12.7104 13.0749 12.7104 13.2075V27.21C12.7104 27.3426 12.7631 27.4698 12.8568 27.5636C12.9506 27.6573 13.0778 27.71 13.2104 27.71H16.8689C17.0015 27.71 17.1287 27.6573 17.2224 27.5636C17.3162 27.4698 17.3689 27.3426 17.3689 27.21V20.2884C17.3689 18.3313 17.7401 16.4359 20.1665 16.4359C22.5584 16.4359 22.5894 18.6754 22.5894 20.4151V27.2106C22.5894 27.3432 22.6421 27.4704 22.7358 27.5642C22.8296 27.6579 22.9568 27.7106 23.0894 27.7106ZM4.75 7.95337C4.75 9.4365 5.97088 10.6567 7.454 10.6567C8.93675 10.6566 10.1569 9.43563 10.1569 7.95288C10.1566 6.47013 8.93637 5.25 7.4535 5.25C5.97025 5.25 4.75 6.47037 4.75 7.95337ZM5.61987 27.7106H9.28325C9.41586 27.7106 9.54304 27.6579 9.6368 27.5642C9.73057 27.4704 9.78325 27.3432 9.78325 27.2106V13.2075C9.78325 13.0749 9.73057 12.9477 9.6368 12.8539C9.54304 12.7602 9.41586 12.7075 9.28325 12.7075H5.61987C5.48727 12.7075 5.36009 12.7602 5.26632 12.8539C5.17255 12.9477 5.11987 13.0749 5.11987 13.2075V27.2106C5.11987 27.3432 5.17255 27.4704 5.26632 27.5642C5.36009 27.6579 5.48727 27.7106 5.61987 27.7106Z" fill="white"/>
</g>
<defs>
<clipPath id="clip0_359_37">
<rect width="32" height="32" fill="white" transform="translate(0 0.5)"/>
</clipPath>
</defs>
</svg>
